HIERARCHY
ROOT Hips
{
	OFFSET 0.000000 0.000000 0.000000
	CHANNELS 6 Xposition Yposition Zposition Xrotation Yrotation Zrotation
	JOINT LeftUpLeg_virtual
	{
		OFFSET 0.000000 0.000000 0.000000
		CHANNELS 3 Xrotation Yrotation Zrotation
		JOINT LeftUpLeg
		{
			OFFSET 15.427100 -6.655098 0.678600
			CHANNELS 3 Xrotation Yrotation Zrotation
			JOINT LeftLeg
			{
				OFFSET 4.081073 -39.591068 13.024000
				CHANNELS 3 Xrotation Yrotation Zrotation
				JOINT LeftFoot
				{
					OFFSET -4.081074 -37.707932 -15.979700
					CHANNELS 3 Xrotation Yrotation Zrotation
					JOINT LeftToeBase
					{
						OFFSET 5.346399 -15.068900 20.645000
						CHANNELS 3 Xrotation Yrotation Zrotation
						JOINT LeftToe_End
						{
							OFFSET 2.754700 0.931300 11.300900
							CHANNELS 3 Xrotation Yrotation Zrotation
							End Site
							{
								OFFSET 0 0 0
							}
						}
					}
				}
			}
		}
	}
	JOINT RightUpLeg_virtual
	{
		OFFSET 0.000000 0.000000 0.000000
		CHANNELS 3 Xrotation Yrotation Zrotation
		JOINT RightUpLeg
		{
			OFFSET -15.569500 -6.655098 0.678600
			CHANNELS 3 Xrotation Yrotation Zrotation
			JOINT RightLeg
			{
				OFFSET -4.081825 -39.591045 13.023800
				CHANNELS 3 Xrotation Yrotation Zrotation
				JOINT RightFoot
				{
					OFFSET 4.081824 -37.707954 -15.979600
					CHANNELS 3 Xrotation Yrotation Zrotation
					JOINT RightToeBase
					{
						OFFSET -5.346400 -15.068900 20.645000
						CHANNELS 3 Xrotation Yrotation Zrotation
						JOINT RightToe_End
						{
							OFFSET -2.754700 0.931300 11.300900
							CHANNELS 3 Xrotation Yrotation Zrotation
							End Site
							{
								OFFSET 0 0 0
							}
						}
					}
				}
			}
		}
	}
	JOINT Spine_virtual
	{
		OFFSET 0.000000 0.000000 0.000000
		CHANNELS 3 Xrotation Yrotation Zrotation
		JOINT Spine
		{
			OFFSET -0.279200 12.230698 -2.892100
			CHANNELS 3 Xrotation Yrotation Zrotation
			JOINT Spine1
			{
				OFFSET -0.232667 10.192268 -1.242267
				CHANNELS 3 Xrotation Yrotation Zrotation
				JOINT Spine1_split
				{
					OFFSET -0.232667 10.192268 -1.242267
					CHANNELS 3 Xrotation Yrotation Zrotation
					JOINT Spine2
					{
						OFFSET -0.232667 10.192268 -1.242267
						CHANNELS 3 Xrotation Yrotation Zrotation
						JOINT Neck_virtual
						{
							OFFSET 0.000000 0.000000 0.000000
							CHANNELS 3 Xrotation Yrotation Zrotation
							JOINT Neck
							{
								OFFSET -0.418800 17.814194 8.416900
								CHANNELS 3 Xrotation Yrotation Zrotation
								JOINT Head
								{
									OFFSET 0.000000 7.031097 3.806800
									CHANNELS 3 Xrotation Yrotation Zrotation
									JOINT HeadTop_End
									{
										OFFSET 0.000000 24.646606 12.978600
										CHANNELS 3 Xrotation Yrotation Zrotation
										End Site
										{
											OFFSET 0 0 0
										}
									}
								}
							}
						}
						JOINT LeftShoulder_virtual
						{
							OFFSET 0.000000 0.000000 0.000000
							CHANNELS 3 Xrotation Yrotation Zrotation
							JOINT LeftShoulder
							{
								OFFSET 8.476499 7.247704 -3.868750
								CHANNELS 3 Xrotation Yrotation Zrotation
								JOINT LeftShoulder_split
								{
									OFFSET 8.476499 7.247704 -3.868750
									CHANNELS 3 Xrotation Yrotation Zrotation
									JOINT LeftArm
									{
										OFFSET 9.308998 -2.777710 0.208600
										CHANNELS 3 Xrotation Yrotation Zrotation
										JOINT LeftForeArm
										{
											OFFSET 29.972298 0.000000 0.000000
											CHANNELS 3 Xrotation Yrotation Zrotation
											JOINT LeftHand
											{
												OFFSET 26.026505 0.000000 0.000000
												CHANNELS 3 Xrotation Yrotation Zrotation
												End Site
												{
													OFFSET 0 0 0
												}
											}
										}
									}
								}
							}
						}
						JOINT RightShoulder_virtual
						{
							OFFSET 0.000000 0.000000 0.000000
							CHANNELS 3 Xrotation Yrotation Zrotation
							JOINT RightShoulder
							{
								OFFSET -7.570500 7.247704 -3.868750
								CHANNELS 3 Xrotation Yrotation Zrotation
								JOINT RightShoulder_split
								{
									OFFSET -7.570500 7.247704 -3.868750
									CHANNELS 3 Xrotation Yrotation Zrotation
									JOINT RightArm
									{
										OFFSET -9.308998 -2.777710 0.208500
										CHANNELS 3 Xrotation Yrotation Zrotation
										JOINT RightForeArm
										{
											OFFSET -29.972300 0.000000 0.000000
											CHANNELS 3 Xrotation Yrotation Zrotation
											JOINT RightHand
											{
												OFFSET -26.026505 0.000000 0.000000
												CHANNELS 3 Xrotation Yrotation Zrotation
												End Site
												{
													OFFSET 0 0 0
												}
											}
										}
									}
								}
							}
						}
					}
				}
			}
		}
	}
}
MOTION
Frames: 8
Frame Time: 0.03333333
-0.371829 76.773819 -1.766731 0.000000 0.000000 0.000000 1.305805 -64.278275 4.657784 -31.846461 5.508228 27.976298 36.362332 -7.370487 -9.806769 -7.234582 0.292278 -7.978131 -0.439831 -0.051881 0.391033 0.000000 0.000000 0.000000 -0.617538 -63.396573 3.860655 -31.460234 -4.449356 -35.417557 51.712011 8.197029 -1.768483 -20.572663 -3.126382 22.977310 2.968313 1.028651 -0.734850 0.000000 0.000000 0.000000 1.255160 -63.614989 4.264903 8.485247 1.167095 0.591263 10.626036 1.169329 -5.101219 0.574478 -1.419366 1.018070 0.000000 0.000000 0.000000 10.669368 0.519055 -3.956824 -17.980415 20.397139 11.450558 7.616218 33.469191 -7.387606 0.000000 0.000000 0.000000 11.163118 0.979377 -3.967533 -4.673805 -14.404877 1.096652 5.240133 -1.283928 -6.513308 -14.664235 9.632200 -25.773744 7.096698 -51.796682 3.073063 0.000000 0.000000 0.000000 11.250358 0.161209 -4.984077 -6.050303 16.115013 9.090826 -0.621546 3.368624 2.026717 -46.339149 -15.161396 31.978515 -145.442895 65.248947 146.293213 0.000000 0.000000 0.000000 
-0.686797 76.704865 -1.339897 0.000000 0.000000 0.000000 1.236275 -64.461413 4.657039 -32.209362 5.533604 28.265348 37.246480 -7.417976 -9.635646 -7.053105 0.437606 -8.003582 -0.190598 0.049906 0.094915 0.000000 0.000000 0.000000 -0.130216 -63.341494 4.150228 -31.131640 -3.507195 -35.388552 50.985576 8.222710 -1.756929 -20.015118 -3.008570 23.776869 2.139973 0.927344 -0.670658 0.000000 0.000000 0.000000 1.529400 -63.982118 4.632414 8.532493 1.004703 0.547126 10.379723 1.026609 -5.070769 0.070229 -1.872126 0.908411 0.000000 0.000000 0.000000 10.144188 0.461789 -4.062707 -18.140619 19.395833 11.717552 7.635369 32.486965 -7.124843 0.000000 0.000000 0.000000 10.911602 0.826085 -3.964082 -4.786759 -14.040676 0.673379 5.067952 -0.780849 -6.768966 -13.217683 10.578454 -25.497402 7.211758 -51.849253 2.827743 0.000000 0.000000 0.000000 10.929522 0.062014 -5.000203 -6.056556 14.948002 9.639968 -0.336135 3.683323 2.798664 -43.263743 -20.068462 32.549943 -141.972025 65.254500 142.231436 0.000000 0.000000 0.000000 
-0.945689 76.410042 -1.036613 0.000000 0.000000 0.000000 1.585664 -63.884098 5.023143 -33.164813 5.145065 28.445989 39.057566 -7.601335 -9.202650 -6.947163 0.237944 -8.195492 0.189885 0.198691 -0.442620 0.000000 0.000000 0.000000 0.727269 -62.691185 4.805412 -30.764504 -2.750759 -35.753851 50.793074 8.061669 -1.598846 -19.940430 -2.929200 24.311109 1.759959 0.880973 -0.464120 0.000000 0.000000 0.000000 2.586352 -63.663708 5.741652 8.673802 0.598098 0.286985 9.863716 0.805155 -5.105557 -0.027541 -2.719433 0.722593 0.000000 0.000000 0.000000 9.367687 0.348465 -4.195593 -18.527242 17.773916 11.111487 6.040096 29.798152 -5.494824 0.000000 0.000000 0.000000 10.314930 0.583941 -4.047841 -4.905614 -13.376978 -0.284581 4.440540 -0.399293 -6.587339 -11.649174 11.845386 -25.016821 5.572892 -52.918018 0.957761 0.000000 0.000000 0.000000 10.245653 -0.087104 -5.013150 -5.839538 13.564130 10.279348 -0.959144 4.406397 3.762829 -39.717120 -25.487855 31.646056 -132.379352 61.566246 132.111090 0.000000 0.000000 0.000000 
-1.103160 75.842682 -0.875893 0.000000 0.000000 0.000000 2.278590 -62.625670 5.753899 -34.746340 4.340464 28.365115 41.606613 -7.877099 -8.558184 -6.947948 -0.317784 -8.603007 0.406691 0.346510 -0.977895 0.000000 0.000000 0.000000 1.805078 -61.567291 5.786139 -30.314739 -2.174038 -36.549046 51.302364 7.738990 -1.376533 -20.623756 -2.937284 24.549175 2.004639 0.911947 -0.201534 0.000000 0.000000 0.000000 4.147305 -62.609107 7.393607 8.898443 0.043055 -0.109263 9.191205 0.574902 -5.164569 0.305391 -3.256939 0.643384 0.000000 0.000000 0.000000 8.474364 0.240706 -4.327911 -19.181615 15.577008 9.792411 3.273100 25.548237 -3.127202 0.000000 0.000000 0.000000 9.467391 0.333180 -4.164320 -5.010645 -12.416558 -1.619005 3.660133 -0.435631 -5.992210 -10.287267 13.126363 -24.407244 2.638893 -54.782103 -2.128606 0.000000 0.000000 0.000000 9.262090 -0.251292 -5.015093 -5.405440 12.107805 10.895112 -2.129371 4.954657 4.610910 -36.283242 -30.488291 29.598953 -122.758676 54.605682 122.007095 0.000000 0.000000 0.000000 
-1.131284 74.949203 -0.787338 0.000000 0.000000 0.000000 3.194330 -60.890296 6.839569 -36.783386 3.194574 27.841075 44.651310 -8.082954 -7.818065 -7.019140 -1.050138 -9.155184 0.346683 0.442932 -1.315365 0.000000 0.000000 0.000000 2.808001 -60.150648 6.971668 -29.973643 -1.603260 -37.800671 52.735368 7.349799 -1.196480 -22.187687 -3.084589 24.660410 2.540111 1.010080 0.092766 0.000000 0.000000 0.000000 5.758724 -60.977129 9.221734 9.158006 -0.507159 -0.519427 8.426668 0.421971 -5.186624 0.670386 -3.508925 0.743810 0.000000 0.000000 0.000000 7.578703 0.191837 -4.416003 -20.089019 12.953354 8.049458 0.018374 20.183171 -0.774727 0.000000 0.000000 0.000000 8.441408 0.170529 -4.232657 -5.074247 -11.327848 -3.161248 2.923845 -0.674198 -5.293114 -9.449990 14.320726 -24.167870 -0.529508 -56.447767 -5.568345 0.000000 0.000000 0.000000 8.127044 -0.369466 -4.952336 -4.936140 10.822939 11.353806 -2.507612 5.237610 4.609790 -33.500172 -34.252880 26.873162 -114.756453 46.474786 113.544040 0.000000 0.000000 0.000000 
-1.119519 73.717140 -0.604073 0.000000 0.000000 0.000000 4.239720 -58.893436 8.244936 -39.182873 1.782461 26.746324 47.940483 -8.082499 -7.133385 -7.243018 -1.728339 -9.751575 0.111806 0.469435 -1.418391 0.000000 0.000000 0.000000 3.558330 -58.618480 8.278732 -29.712549 -0.855302 -39.435941 55.162100 6.980641 -1.185679 -24.511498 -3.480877 24.979960 2.904514 1.141393 0.411287 0.000000 0.000000 0.000000 7.120596 -58.960857 10.954741 9.375724 -0.896426 -0.817793 7.671064 0.400660 -5.100725 0.975868 -3.593966 0.964586 0.000000 0.000000 0.000000 6.813518 0.240538 -4.409466 -21.208393 10.030278 6.168273 -3.133542 14.286394 0.991921 0.000000 0.000000 0.000000 7.366044 0.143885 -4.193596 -5.106623 -10.254360 -4.775265 2.266798 -1.347621 -4.784671 -9.068882 14.837896 -24.864756 -2.633087 -57.148490 -8.184029 0.000000 0.000000 0.000000 6.986093 -0.379553 -4.794422 -4.553248 9.975400 11.664777 -2.940674 4.376544 3.946676 -31.227580 -36.233453 24.559040 -107.192777 39.279086 105.395659 0.000000 0.000000 0.000000 
-1.053235 72.101753 -0.360577 0.000000 0.000000 0.000000 5.101572 -56.716248 9.677974 -41.820917 0.185723 25.016985 51.257622 -7.815445 -6.540370 -7.565713 -2.187689 -10.400696 -0.204678 0.449462 -1.263673 0.000000 0.000000 0.000000 4.036865 -56.956200 9.650218 -29.316606 0.301330 -41.237885 58.420800 6.607430 -1.450970 -27.446876 -4.275704 25.711629 2.560468 1.235813 0.759240 0.000000 0.000000 0.000000 7.996311 -56.634740 12.361819 9.501591 -1.080412 -0.944138 7.021954 0.498812 -4.876741 1.044160 -3.491991 0.789435 0.000000 0.000000 0.000000 6.219929 0.367795 -4.276308 -22.518729 6.983582 4.269515 -5.717754 8.344684 1.914132 0.000000 0.000000 0.000000 6.374255 0.236696 -4.035927 -5.130623 -9.474733 -6.475448 1.566808 -2.178395 -4.462908 -9.371880 14.092624 -26.747195 -2.538513 -56.536525 -8.966475 0.000000 0.000000 0.000000 5.991549 -0.242933 -4.465957 -4.336435 9.776246 12.261450 -3.818092 2.833229 2.978114 -29.875367 -36.411919 23.269761 -98.716635 33.793112 95.753522 0.000000 0.000000 0.000000 
-0.964069 70.132774 -0.051250 0.000000 0.000000 0.000000 5.612045 -54.511146 10.909242 -44.670615 -1.460400 22.769035 54.555149 -7.298919 -6.059217 -7.932805 -2.289929 -11.017175 -0.380363 0.408008 -0.944152 0.000000 0.000000 0.000000 4.180526 -55.212982 10.851536 -28.451916 1.806440 -42.930474 62.160240 6.066403 -2.035057 -31.029187 -5.664121 26.589276 1.672392 1.253127 1.167153 0.000000 0.000000 0.000000 8.198126 -54.104285 13.232432 9.509158 -1.034457 -0.866634 6.509016 0.664157 -4.518612 1.128030 -3.237193 0.489144 0.000000 0.000000 0.000000 5.783060 0.543049 -3.982659 -23.949013 3.986728 2.489485 -7.389340 2.952898 2.025286 0.000000 0.000000 0.000000 5.569656 0.393645 -3.770609 -5.171774 -9.157055 -8.127792 0.633404 -2.393509 -4.725930 -10.514910 12.102788 -29.821289 -0.403561 -54.403372 -7.964667 0.000000 0.000000 0.000000 5.287139 -0.003690 -3.975938 -4.436578 10.209050 13.363105 -4.674975 1.734700 2.377409 -30.452139 -35.175399 23.151898 -89.445398 29.606357 84.351737 0.000000 0.000000 0.000000 
